<mxfile host="65bd71144e">
    <diagram id="NPx3S8SaIRZFiKmQ9fJm" name="Page-1">
        <mxGraphModel dx="1022" dy="695" grid="0" gridSize="10" guides="1" tooltips="1" connect="1" arrows="1" fold="1" page="1" pageScale="1" pageWidth="1920" pageHeight="1200" background="#ffffff" math="0" shadow="0">
            <root>
                <mxCell id="0"/>
                <mxCell id="1" parent="0"/>
                <mxCell id="64" style="edgeStyle=none;rounded=0;html=1;entryX=0;entryY=0.5;entryDx=0;entryDy=0;entryPerimeter=0;strokeColor=#000000;strokeWidth=1;startFill=1;endArrow=classic;endFill=1;exitX=0.478;exitY=1.005;exitDx=0;exitDy=0;exitPerimeter=0;movable=0;resizable=0;rotatable=0;deletable=0;editable=0;connectable=0;" parent="1" source="76" target="27" edge="1">
                    <mxGeometry relative="1" as="geometry">
                        <mxPoint x="170" y="580" as="sourcePoint"/>
                        <Array as="points">
                            <mxPoint x="170" y="701"/>
                        </Array>
                    </mxGeometry>
                </mxCell>
                <mxCell id="65" style="edgeStyle=none;rounded=0;html=1;entryX=0;entryY=0.5;entryDx=0;entryDy=0;entryPerimeter=0;strokeColor=#000000;strokeWidth=1;startFill=1;endArrow=classic;endFill=1;exitX=0.479;exitY=0;exitDx=0;exitDy=0;exitPerimeter=0;movable=0;resizable=0;rotatable=0;deletable=0;editable=0;connectable=0;" parent="1" source="76" target="26" edge="1">
                    <mxGeometry relative="1" as="geometry">
                        <mxPoint x="170" y="470" as="sourcePoint"/>
                        <Array as="points">
                            <mxPoint x="170" y="330"/>
                        </Array>
                    </mxGeometry>
                </mxCell>
                <mxCell id="66" value="" style="edgeStyle=none;rounded=0;html=1;strokeColor=#000000;strokeWidth=1;startFill=1;endArrow=classic;endFill=1;entryX=0;entryY=0.5;entryDx=0;entryDy=0;entryPerimeter=0;exitX=1.001;exitY=0.496;exitDx=0;exitDy=0;exitPerimeter=0;movable=0;resizable=0;rotatable=0;deletable=0;editable=0;connectable=0;" parent="1" source="76" target="28" edge="1">
                    <mxGeometry relative="1" as="geometry">
                        <mxPoint x="230" y="520" as="sourcePoint"/>
                    </mxGeometry>
                </mxCell>
                <mxCell id="2" value="&lt;br&gt;" style="sketch=0;outlineConnect=0;gradientColor=none;fontColor=#545B64;strokeColor=none;fillColor=#879196;dashed=0;verticalLabelPosition=bottom;verticalAlign=top;align=center;html=1;fontSize=12;fontStyle=0;aspect=fixed;shape=mxgraph.aws4.illustration_devices;pointerEvents=1;movable=0;resizable=0;rotatable=0;deletable=0;editable=0;connectable=0;" parent="1" vertex="1">
                    <mxGeometry x="120" y="483.5" width="100" height="73" as="geometry"/>
                </mxCell>
                <mxCell id="3" value="AWS Cloud" style="points=[[0,0],[0.25,0],[0.5,0],[0.75,0],[1,0],[1,0.25],[1,0.5],[1,0.75],[1,1],[0.75,1],[0.5,1],[0.25,1],[0,1],[0,0.75],[0,0.5],[0,0.25]];outlineConnect=0;gradientColor=none;html=1;whiteSpace=wrap;fontSize=12;fontStyle=0;container=1;pointerEvents=0;collapsible=0;recursiveResize=0;shape=mxgraph.aws4.group;grIcon=mxgraph.aws4.group_aws_cloud_alt;strokeColor=#232F3E;fillColor=none;verticalAlign=top;align=left;spacingLeft=30;fontColor=#232F3E;dashed=0;movable=0;resizable=0;rotatable=0;deletable=0;editable=0;connectable=0;" parent="1" vertex="1">
                    <mxGeometry x="280" y="40" width="1240" height="960" as="geometry"/>
                </mxCell>
                <mxCell id="4" value="Region" style="points=[[0,0],[0.25,0],[0.5,0],[0.75,0],[1,0],[1,0.25],[1,0.5],[1,0.75],[1,1],[0.75,1],[0.5,1],[0.25,1],[0,1],[0,0.75],[0,0.5],[0,0.25]];outlineConnect=0;gradientColor=none;html=1;whiteSpace=wrap;fontSize=12;fontStyle=0;container=1;pointerEvents=0;collapsible=0;recursiveResize=0;shape=mxgraph.aws4.group;grIcon=mxgraph.aws4.group_region;strokeColor=#147EBA;fillColor=none;verticalAlign=top;align=left;spacingLeft=30;fontColor=#147EBA;dashed=1;movable=0;resizable=0;rotatable=0;deletable=0;editable=0;connectable=0;" parent="3" vertex="1">
                    <mxGeometry x="40" y="40" width="1160" height="880" as="geometry"/>
                </mxCell>
                <mxCell id="5" value="VPC" style="points=[[0,0],[0.25,0],[0.5,0],[0.75,0],[1,0],[1,0.25],[1,0.5],[1,0.75],[1,1],[0.75,1],[0.5,1],[0.25,1],[0,1],[0,0.75],[0,0.5],[0,0.25]];outlineConnect=0;gradientColor=none;html=1;whiteSpace=wrap;fontSize=12;fontStyle=0;container=1;pointerEvents=0;collapsible=0;recursiveResize=0;shape=mxgraph.aws4.group;grIcon=mxgraph.aws4.group_vpc;strokeColor=#248814;fillColor=none;verticalAlign=top;align=left;spacingLeft=30;fontColor=#AAB7B8;dashed=0;movable=0;resizable=0;rotatable=0;deletable=0;editable=0;connectable=0;" parent="4" vertex="1">
                    <mxGeometry x="240" y="40" width="880" height="800" as="geometry"/>
                </mxCell>
                <mxCell id="38" value="&lt;font style=&quot;font-size: 12px;&quot;&gt;Availability Zone&lt;/font&gt;" style="fillColor=none;strokeColor=#147EBA;dashed=1;verticalAlign=top;fontStyle=0;fontColor=#147EBA;whiteSpace=wrap;html=1;fontSize=16;movable=0;resizable=0;rotatable=0;deletable=0;editable=0;connectable=0;" parent="5" vertex="1">
                    <mxGeometry x="80" y="480" width="760" height="275" as="geometry"/>
                </mxCell>
                <mxCell id="6" value="Private subnet" style="points=[[0,0],[0.25,0],[0.5,0],[0.75,0],[1,0],[1,0.25],[1,0.5],[1,0.75],[1,1],[0.75,1],[0.5,1],[0.25,1],[0,1],[0,0.75],[0,0.5],[0,0.25]];outlineConnect=0;gradientColor=none;html=1;whiteSpace=wrap;fontSize=12;fontStyle=0;container=1;pointerEvents=0;collapsible=0;recursiveResize=0;shape=mxgraph.aws4.group;grIcon=mxgraph.aws4.group_security_group;grStroke=0;strokeColor=#147EBA;fillColor=#E6F2F8;verticalAlign=top;align=left;spacingLeft=30;fontColor=#147EBA;dashed=0;movable=0;resizable=0;rotatable=0;deletable=0;editable=0;connectable=0;" parent="5" vertex="1">
                    <mxGeometry x="480" y="560" width="320" height="160" as="geometry"/>
                </mxCell>
                <mxCell id="14" value="Compute optimized" style="sketch=0;outlineConnect=0;fontColor=#232F3E;gradientColor=none;fillColor=#D45B07;strokeColor=none;dashed=0;verticalLabelPosition=bottom;verticalAlign=top;align=center;html=1;fontSize=12;fontStyle=0;aspect=fixed;pointerEvents=1;shape=mxgraph.aws4.instance2;movable=0;resizable=0;rotatable=0;deletable=0;editable=0;connectable=0;" parent="6" vertex="1">
                    <mxGeometry x="130" y="50" width="60" height="60" as="geometry"/>
                </mxCell>
                <mxCell id="61" style="rounded=0;html=1;strokeColor=#000000;strokeWidth=1;endArrow=none;endFill=0;movable=0;resizable=0;rotatable=0;deletable=0;editable=0;connectable=0;" parent="5" edge="1">
                    <mxGeometry relative="1" as="geometry">
                        <mxPoint x="355" y="400" as="sourcePoint"/>
                        <mxPoint x="435" y="400" as="targetPoint"/>
                    </mxGeometry>
                </mxCell>
                <mxCell id="23" value="ALB" style="sketch=0;outlineConnect=0;fontColor=#232F3E;gradientColor=none;fillColor=#4D27AA;strokeColor=none;dashed=0;verticalLabelPosition=bottom;verticalAlign=top;align=center;html=1;fontSize=12;fontStyle=0;aspect=fixed;pointerEvents=1;shape=mxgraph.aws4.application_load_balancer;movable=0;resizable=0;rotatable=0;deletable=0;editable=0;connectable=0;" parent="5" vertex="1">
                    <mxGeometry x="297" y="366" width="59" height="59" as="geometry"/>
                </mxCell>
                <mxCell id="11" value="EFS" style="sketch=0;points=[[0,0,0],[0.25,0,0],[0.5,0,0],[0.75,0,0],[1,0,0],[0,1,0],[0.25,1,0],[0.5,1,0],[0.75,1,0],[1,1,0],[0,0.25,0],[0,0.5,0],[0,0.75,0],[1,0.25,0],[1,0.5,0],[1,0.75,0]];outlineConnect=0;fontColor=#232F3E;gradientColor=#60A337;gradientDirection=north;fillColor=#277116;strokeColor=#ffffff;dashed=0;verticalLabelPosition=bottom;verticalAlign=top;align=center;html=1;fontSize=12;fontStyle=0;aspect=fixed;shape=mxgraph.aws4.resourceIcon;resIcon=mxgraph.aws4.elastic_file_system;movable=0;resizable=0;rotatable=0;deletable=0;editable=0;connectable=0;" parent="5" vertex="1">
                    <mxGeometry x="615" y="375" width="50" height="50" as="geometry"/>
                </mxCell>
                <mxCell id="35" value="&lt;font style=&quot;font-size: 12px;&quot;&gt;Availability Zone&lt;/font&gt;" style="fillColor=none;strokeColor=#147EBA;dashed=1;verticalAlign=top;fontStyle=0;fontColor=#147EBA;whiteSpace=wrap;html=1;fontSize=16;movable=0;resizable=0;rotatable=0;deletable=0;editable=0;connectable=0;" parent="5" vertex="1">
                    <mxGeometry x="80" y="40" width="760" height="275" as="geometry"/>
                </mxCell>
                <mxCell id="21" value="Public subnet" style="points=[[0,0],[0.25,0],[0.5,0],[0.75,0],[1,0],[1,0.25],[1,0.5],[1,0.75],[1,1],[0.75,1],[0.5,1],[0.25,1],[0,1],[0,0.75],[0,0.5],[0,0.25]];outlineConnect=0;gradientColor=none;html=1;whiteSpace=wrap;fontSize=12;fontStyle=0;container=1;pointerEvents=0;collapsible=0;recursiveResize=0;shape=mxgraph.aws4.group;grIcon=mxgraph.aws4.group_security_group;grStroke=0;strokeColor=#248814;fillColor=#E9F3E6;verticalAlign=top;align=left;spacingLeft=30;fontColor=#248814;dashed=0;movable=0;resizable=0;rotatable=0;deletable=0;editable=0;connectable=0;" parent="5" vertex="1">
                    <mxGeometry x="120" y="560" width="280" height="160" as="geometry"/>
                </mxCell>
                <mxCell id="22" value="NAT Gateway" style="sketch=0;outlineConnect=0;fontColor=#232F3E;gradientColor=none;fillColor=#4D27AA;strokeColor=none;dashed=0;verticalLabelPosition=bottom;verticalAlign=top;align=center;html=1;fontSize=12;fontStyle=0;aspect=fixed;pointerEvents=1;shape=mxgraph.aws4.nat_gateway;movable=0;resizable=0;rotatable=0;deletable=0;editable=0;connectable=0;" parent="21" vertex="1">
                    <mxGeometry x="108.87" y="50" width="62.25" height="62.25" as="geometry"/>
                </mxCell>
                <mxCell id="43" value="Private subnet" style="points=[[0,0],[0.25,0],[0.5,0],[0.75,0],[1,0],[1,0.25],[1,0.5],[1,0.75],[1,1],[0.75,1],[0.5,1],[0.25,1],[0,1],[0,0.75],[0,0.5],[0,0.25]];outlineConnect=0;gradientColor=none;html=1;whiteSpace=wrap;fontSize=12;fontStyle=0;container=1;pointerEvents=0;collapsible=0;recursiveResize=0;shape=mxgraph.aws4.group;grIcon=mxgraph.aws4.group_security_group;grStroke=0;strokeColor=#147EBA;fillColor=#E6F2F8;verticalAlign=top;align=left;spacingLeft=30;fontColor=#147EBA;dashed=0;movable=0;resizable=0;rotatable=0;deletable=0;editable=0;connectable=0;" parent="5" vertex="1">
                    <mxGeometry x="480" y="120" width="320" height="160" as="geometry"/>
                </mxCell>
                <mxCell id="44" value="Compute optimized" style="sketch=0;outlineConnect=0;fontColor=#232F3E;gradientColor=none;fillColor=#D45B07;strokeColor=none;dashed=0;verticalLabelPosition=bottom;verticalAlign=top;align=center;html=1;fontSize=12;fontStyle=0;aspect=fixed;pointerEvents=1;shape=mxgraph.aws4.instance2;movable=0;resizable=0;rotatable=0;deletable=0;editable=0;connectable=0;" parent="43" vertex="1">
                    <mxGeometry x="130" y="50" width="60" height="60" as="geometry"/>
                </mxCell>
                <mxCell id="45" value="Public subnet" style="points=[[0,0],[0.25,0],[0.5,0],[0.75,0],[1,0],[1,0.25],[1,0.5],[1,0.75],[1,1],[0.75,1],[0.5,1],[0.25,1],[0,1],[0,0.75],[0,0.5],[0,0.25]];outlineConnect=0;gradientColor=none;html=1;whiteSpace=wrap;fontSize=12;fontStyle=0;container=1;pointerEvents=0;collapsible=0;recursiveResize=0;shape=mxgraph.aws4.group;grIcon=mxgraph.aws4.group_security_group;grStroke=0;strokeColor=#248814;fillColor=#E9F3E6;verticalAlign=top;align=left;spacingLeft=30;fontColor=#248814;dashed=0;movable=0;resizable=0;rotatable=0;deletable=0;editable=0;connectable=0;" parent="5" vertex="1">
                    <mxGeometry x="120" y="120" width="280" height="160" as="geometry"/>
                </mxCell>
                <mxCell id="46" value="NAT Gateway" style="sketch=0;outlineConnect=0;fontColor=#232F3E;gradientColor=none;fillColor=#4D27AA;strokeColor=none;dashed=0;verticalLabelPosition=bottom;verticalAlign=top;align=center;html=1;fontSize=12;fontStyle=0;aspect=fixed;pointerEvents=1;shape=mxgraph.aws4.nat_gateway;movable=0;resizable=0;rotatable=0;deletable=0;editable=0;connectable=0;" parent="45" vertex="1">
                    <mxGeometry x="108.87" y="50" width="62.25" height="62.25" as="geometry"/>
                </mxCell>
                <mxCell id="51" value="Auto Scaling group" style="points=[[0,0],[0.25,0],[0.5,0],[0.75,0],[1,0],[1,0.25],[1,0.5],[1,0.75],[1,1],[0.75,1],[0.5,1],[0.25,1],[0,1],[0,0.75],[0,0.5],[0,0.25]];outlineConnect=0;gradientColor=none;html=1;whiteSpace=wrap;fontSize=12;fontStyle=0;container=1;pointerEvents=0;collapsible=0;recursiveResize=0;shape=mxgraph.aws4.groupCenter;grIcon=mxgraph.aws4.group_auto_scaling_group;grStroke=1;strokeColor=#D86613;fillColor=none;verticalAlign=top;align=center;fontColor=#D86613;dashed=1;spacingTop=25;rotation=0;movable=0;resizable=0;rotatable=0;deletable=0;editable=0;connectable=0;" parent="5" vertex="1">
                    <mxGeometry x="540" y="55.5" width="200" height="680" as="geometry"/>
                </mxCell>
                <mxCell id="68" style="edgeStyle=none;rounded=0;html=1;strokeColor=#000000;strokeWidth=1;startFill=1;endArrow=classic;endFill=1;movable=0;resizable=0;rotatable=0;deletable=0;editable=0;connectable=0;" parent="5" source="44" target="46" edge="1">
                    <mxGeometry relative="1" as="geometry"/>
                </mxCell>
                <mxCell id="69" style="edgeStyle=none;rounded=0;html=1;strokeColor=#000000;strokeWidth=1;startFill=1;endArrow=classic;endFill=1;movable=0;resizable=0;rotatable=0;deletable=0;editable=0;connectable=0;" parent="5" source="14" target="22" edge="1">
                    <mxGeometry relative="1" as="geometry"/>
                </mxCell>
                <mxCell id="74" value="" style="edgeStyle=none;orthogonalLoop=1;jettySize=auto;html=1;rounded=0;strokeColor=#000000;strokeWidth=1;startArrow=none;startFill=0;endArrow=classic;endFill=1;movable=0;resizable=0;rotatable=0;deletable=0;editable=0;connectable=0;" parent="5" target="44" edge="1">
                    <mxGeometry width="80" relative="1" as="geometry">
                        <mxPoint x="435.00243551815277" y="217.00411764705882" as="sourcePoint"/>
                        <mxPoint x="515.0024355181527" y="217.00411764705882" as="targetPoint"/>
                        <Array as="points"/>
                    </mxGeometry>
                </mxCell>
                <mxCell id="75" value="" style="edgeStyle=none;orthogonalLoop=1;jettySize=auto;html=1;rounded=0;strokeColor=#000000;strokeWidth=1;startArrow=none;startFill=0;endArrow=classic;endFill=1;movable=0;resizable=0;rotatable=0;deletable=0;editable=0;connectable=0;" parent="5" target="14" edge="1">
                    <mxGeometry width="80" relative="1" as="geometry">
                        <mxPoint x="435.0024478004091" y="623.0024274553571" as="sourcePoint"/>
                        <mxPoint x="515.0024478004091" y="623.0024274553571" as="targetPoint"/>
                        <Array as="points"/>
                    </mxGeometry>
                </mxCell>
                <mxCell id="24" value="Internet&lt;br&gt;Gateway" style="sketch=0;outlineConnect=0;fontColor=#232F3E;gradientColor=none;fillColor=#4D27AA;strokeColor=none;dashed=0;verticalLabelPosition=bottom;verticalAlign=top;align=center;html=1;fontSize=12;fontStyle=0;aspect=fixed;pointerEvents=1;shape=mxgraph.aws4.internet_gateway;movable=1;resizable=1;rotatable=1;deletable=1;editable=1;connectable=1;" parent="5" vertex="1">
                    <mxGeometry x="-30" y="710" width="60" height="60" as="geometry"/>
                </mxCell>
                <mxCell id="70" style="edgeStyle=none;rounded=0;html=1;strokeColor=#000000;strokeWidth=1;startFill=1;endArrow=classic;endFill=1;movable=0;resizable=0;rotatable=0;deletable=0;editable=0;connectable=0;" parent="5" source="22" target="24" edge="1">
                    <mxGeometry relative="1" as="geometry">
                        <Array as="points">
                            <mxPoint x="260" y="740"/>
                            <mxPoint x="60" y="740"/>
                        </Array>
                    </mxGeometry>
                </mxCell>
                <mxCell id="55" style="edgeStyle=none;html=1;strokeColor=#000000;strokeWidth=1;endArrow=classic;endFill=1;movable=0;resizable=0;rotatable=0;deletable=0;editable=0;connectable=0;" parent="4" source="28" target="16" edge="1">
                    <mxGeometry relative="1" as="geometry"/>
                </mxCell>
                <mxCell id="28" value="API Gateway" style="sketch=0;points=[[0,0,0],[0.25,0,0],[0.5,0,0],[0.75,0,0],[1,0,0],[0,1,0],[0.25,1,0],[0.5,1,0],[0.75,1,0],[1,1,0],[0,0.25,0],[0,0.5,0],[0,0.75,0],[1,0.25,0],[1,0.5,0],[1,0.75,0]];outlineConnect=0;fontColor=#232F3E;gradientColor=#FF4F8B;gradientDirection=north;fillColor=#BC1356;strokeColor=#ffffff;dashed=0;verticalLabelPosition=bottom;verticalAlign=top;align=center;html=1;fontSize=12;fontStyle=0;aspect=fixed;shape=mxgraph.aws4.resourceIcon;resIcon=mxgraph.aws4.api_gateway;movable=0;resizable=0;rotatable=0;deletable=0;editable=0;connectable=0;" parent="4" vertex="1">
                    <mxGeometry x="66" y="401" width="78" height="78" as="geometry"/>
                </mxCell>
                <mxCell id="27" value="AWS Amplify" style="sketch=0;points=[[0,0,0],[0.25,0,0],[0.5,0,0],[0.75,0,0],[1,0,0],[0,1,0],[0.25,1,0],[0.5,1,0],[0.75,1,0],[1,1,0],[0,0.25,0],[0,0.5,0],[0,0.75,0],[1,0.25,0],[1,0.5,0],[1,0.75,0]];outlineConnect=0;fontColor=#232F3E;gradientColor=#F54749;gradientDirection=north;fillColor=#C7131F;strokeColor=#ffffff;dashed=0;verticalLabelPosition=bottom;verticalAlign=top;align=center;html=1;fontSize=12;fontStyle=0;aspect=fixed;shape=mxgraph.aws4.resourceIcon;resIcon=mxgraph.aws4.amplify;movable=0;resizable=0;rotatable=0;deletable=0;editable=0;connectable=0;" parent="4" vertex="1">
                    <mxGeometry x="66" y="582" width="78" height="78" as="geometry"/>
                </mxCell>
                <mxCell id="57" style="edgeStyle=none;html=1;entryX=1;entryY=0.5;entryDx=0;entryDy=0;entryPerimeter=0;strokeColor=#000000;strokeWidth=1;endArrow=none;endFill=0;exitX=1;exitY=0.5;exitDx=0;exitDy=0;exitPerimeter=0;rounded=0;dashed=1;movable=0;resizable=0;rotatable=0;deletable=0;editable=0;connectable=0;" parent="4" source="26" target="27" edge="1">
                    <mxGeometry relative="1" as="geometry">
                        <Array as="points">
                            <mxPoint x="178" y="250"/>
                            <mxPoint x="178" y="621"/>
                        </Array>
                    </mxGeometry>
                </mxCell>
                <mxCell id="67" style="edgeStyle=none;rounded=0;html=1;strokeColor=#000000;strokeWidth=1;startFill=1;endArrow=none;endFill=0;dashed=1;movable=0;resizable=0;rotatable=0;deletable=0;editable=0;connectable=0;" parent="4" source="26" target="28" edge="1">
                    <mxGeometry relative="1" as="geometry"/>
                </mxCell>
                <mxCell id="26" value="Amazon Cognito" style="sketch=0;points=[[0,0,0],[0.25,0,0],[0.5,0,0],[0.75,0,0],[1,0,0],[0,1,0],[0.25,1,0],[0.5,1,0],[0.75,1,0],[1,1,0],[0,0.25,0],[0,0.5,0],[0,0.75,0],[1,0.25,0],[1,0.5,0],[1,0.75,0]];outlineConnect=0;fontColor=#232F3E;gradientColor=#F54749;gradientDirection=north;fillColor=#C7131F;strokeColor=#ffffff;dashed=0;verticalLabelPosition=bottom;verticalAlign=top;align=center;html=1;fontSize=12;fontStyle=0;aspect=fixed;shape=mxgraph.aws4.resourceIcon;resIcon=mxgraph.aws4.cognito;movable=0;resizable=0;rotatable=0;deletable=0;editable=0;connectable=0;" parent="4" vertex="1">
                    <mxGeometry x="66" y="211" width="78" height="78" as="geometry"/>
                </mxCell>
                <mxCell id="16" value="VPC Link" style="sketch=0;outlineConnect=0;fontColor=#232F3E;gradientColor=none;fillColor=#4D27AA;strokeColor=none;dashed=0;verticalLabelPosition=bottom;verticalAlign=top;align=center;html=1;fontSize=12;fontStyle=0;aspect=fixed;pointerEvents=1;shape=mxgraph.aws4.endpoints;movable=0;resizable=0;rotatable=0;deletable=0;editable=0;connectable=0;" parent="4" vertex="1">
                    <mxGeometry x="210" y="410" width="60" height="60" as="geometry"/>
                </mxCell>
                <mxCell id="71" style="edgeStyle=orthogonalEdgeStyle;rounded=0;html=1;strokeColor=#000000;strokeWidth=1;startFill=0;endArrow=none;endFill=0;startArrow=none;movable=0;resizable=0;rotatable=0;deletable=0;editable=0;connectable=0;" parent="4" source="46" edge="1">
                    <mxGeometry relative="1" as="geometry">
                        <mxPoint x="300" y="780" as="targetPoint"/>
                        <Array as="points">
                            <mxPoint x="300" y="241"/>
                            <mxPoint x="300" y="680"/>
                        </Array>
                    </mxGeometry>
                </mxCell>
                <mxCell id="48" style="edgeStyle=none;html=1;dashed=1;endArrow=none;endFill=0;strokeColor=#000000;movable=0;resizable=0;rotatable=0;deletable=0;editable=0;connectable=0;" parent="1" source="44" edge="1">
                    <mxGeometry relative="1" as="geometry">
                        <mxPoint x="1200" y="500.0235290527344" as="targetPoint"/>
                    </mxGeometry>
                </mxCell>
                <mxCell id="49" style="edgeStyle=none;html=1;dashed=1;endArrow=none;endFill=0;movable=0;resizable=0;rotatable=0;deletable=0;editable=0;connectable=0;" parent="1" source="14" edge="1">
                    <mxGeometry relative="1" as="geometry">
                        <mxPoint x="1200" y="543.5235137939453" as="targetPoint"/>
                    </mxGeometry>
                </mxCell>
                <mxCell id="50" style="edgeStyle=none;html=1;dashed=1;endArrow=none;endFill=0;strokeWidth=1;strokeColor=#000000;movable=0;resizable=0;rotatable=0;deletable=0;editable=0;connectable=0;" parent="1" source="14" edge="1">
                    <mxGeometry relative="1" as="geometry">
                        <mxPoint x="1200" y="557.0234985351562" as="targetPoint"/>
                    </mxGeometry>
                </mxCell>
                <mxCell id="58" style="edgeStyle=none;rounded=0;html=1;strokeColor=#000000;strokeWidth=1;endArrow=classic;endFill=1;movable=0;resizable=0;rotatable=0;deletable=0;editable=0;connectable=0;" parent="1" source="16" edge="1">
                    <mxGeometry relative="1" as="geometry">
                        <mxPoint x="859.1848436438522" y="520" as="targetPoint"/>
                    </mxGeometry>
                </mxCell>
                <mxCell id="73" value="" style="edgeStyle=none;orthogonalLoop=1;jettySize=auto;html=1;rounded=0;strokeColor=#000000;strokeWidth=1;startArrow=none;startFill=0;endArrow=none;endFill=0;movable=0;resizable=0;rotatable=0;deletable=0;editable=0;connectable=0;" parent="1" edge="1">
                    <mxGeometry width="80" relative="1" as="geometry">
                        <mxPoint x="995" y="337" as="sourcePoint"/>
                        <mxPoint x="995" y="743" as="targetPoint"/>
                        <Array as="points"/>
                    </mxGeometry>
                </mxCell>
                <mxCell id="76" value="" style="whiteSpace=wrap;html=1;aspect=fixed;fillColor=none;movable=0;resizable=0;rotatable=0;deletable=0;editable=0;connectable=0;" parent="1" vertex="1">
                    <mxGeometry x="116" y="464" width="113" height="113" as="geometry"/>
                </mxCell>
                <mxCell id="80" value="" style="aspect=fixed;pointerEvents=1;shadow=0;html=1;labelPosition=center;verticalLabelPosition=bottom;verticalAlign=top;align=center;shape=mxgraph.mscae.enterprise.internet_hollow;strokeWidth=2;perimeterSpacing=6;fillColor=default;gradientColor=default;strokeColor=#000000;" vertex="1" parent="1">
                    <mxGeometry x="122.82" y="830" width="94.36" height="58.5" as="geometry"/>
                </mxCell>
                <mxCell id="81" style="edgeStyle=none;html=1;entryX=1;entryY=0.5;entryDx=0;entryDy=0;strokeColor=#000000;" edge="1" parent="1" source="24" target="82">
                    <mxGeometry relative="1" as="geometry"/>
                </mxCell>
                <mxCell id="82" value="" style="whiteSpace=wrap;html=1;aspect=fixed;fillColor=none;movable=1;resizable=1;rotatable=1;deletable=1;editable=1;connectable=1;strokeColor=#f2f2f2;" vertex="1" parent="1">
                    <mxGeometry x="113.5" y="802.75" width="113" height="113" as="geometry"/>
                </mxCell>
            </root>
        </mxGraphModel>
    </diagram>
</mxfile>